[Header]
FileType HTR
DataType HTRS
FileVersion 1
NumSegments 22
NumFrames 7
DataFrameRate 24
EulerRotationOrder ZYX
CalibrationUnits mm
RotationUnits Degrees
GlobalAxisofGravity Y
BoneLengthAxis Y
ScaleFactor 1.0
[SegmentNames&Hierarchy]
reference	GLOBAL
Hips	reference
Spine	Hips
Spine1	Spine
Neck	Spine1
Head	Neck
LeftShoulder	Spine1
LeftArm	LeftShoulder
LeftForeArm	LeftArm
LeftHand	LeftForeArm
RightShoulder	Spine1
RightArm	RightShoulder
RightForeArm	RightArm
RightHand	RightForeArm
LeftUpLeg	Hips
LeftLeg	LeftUpLeg
LeftFoot	LeftLeg
LeftToeBase	LeftFoot
RightUpLeg	Hips
RightLeg	RightUpLeg
RightFoot	RightLeg
RightToeBase	RightFoot
[BasePosition]
reference	0	0	0	0	0	0	1
Hips	0	0	0	0	0	0	1
Spine	0	0	0	0	-0	90	1
Spine1	0	0	0	0	0	0	1
Neck	0	0	0	-7.352430803	-7.352430803	90	1
Head	0	0	0	0	-0	90	1
LeftShoulder	0	0	0	0	0	0	1
LeftArm	0	0	0	0	0	0	1
LeftForeArm	0	0	0	0	0	0	1
LeftHand	0	0	0	0	0	0	1
RightShoulder	0	0	0	0	-0	180	1
RightArm	0	0	0	0	-0	180	1
RightForeArm	0	0	0	0	-0	180	1
RightHand	0	0	0	0	-0	180	1
LeftUpLeg	0	0	0	0	-0	-90	1
LeftLeg	0	0	0	0	-0	-90	1
LeftFoot	0	0	0	66.57150701	-66.57150701	-90	1
LeftToeBase	0	0	0	0	-90	0	1
RightUpLeg	0	0	0	0	-0	-90	1
RightLeg	0	0	0	0	-0	-90	1
RightFoot	0	0	0	66.57150701	-66.57150701	-90	1
RightToeBase	0	0	0	0	-90	0	1
[reference]
19	0	0	0	0	-0	0	1.0
20	0	0	0	0	-0	0	1.0
21	0	0	0	0	-0	0	1.0
22	0	0	0	0	-0	0	1.0
23	0	0	0	0	-0	0	1.0
24	0	0	0	0	-0	0	1.0
25	0	0	0	0	-0	0	1.0
[Hips]
19	5.635780334	8.448179245	1.015370011	6.309112549	-104.7845154	-7.794403076	1.0
20	5.597297668	8.440483093	0.9833593369	5.943073273	-105.2057648	-7.741455555	1.0
21	5.558011055	8.432712555	0.9503965378	5.999212742	-105.4215088	-7.983087063	1.0
22	5.513616085	8.424846649	0.9174316525	5.813542366	-105.5460892	-7.97060585	1.0
23	5.468235016	8.416863441	0.877063334	4.669300556	-105.3116531	-7.0939188	1.0
24	5.415267944	8.398260117	0.8358868361	3.415482759	-104.7427292	-5.977641582	1.0
25	5.359370232	8.375969887	0.7977419496	4.067977905	-103.6854095	-6.662094116	1.0
[Spine]
19	0	0.7478299737	0	-8.241153717	-2.586282015	-90.41297913	1.0
20	0	0.7478299737	0	-8.09056282	-2.538469553	-90.28109741	1.0
21	0	0.7478299737	0	-8.009361267	-2.623022079	-90.32143402	1.0
22	0	0.7478299737	0	-7.809681416	-2.507256508	-90.18305206	1.0
23	0	0.7478299737	0	-7.338653564	-2.431160927	-89.80437469	1.0
24	0	0.7478299737	0	-7.113313675	-2.530332565	-89.54940796	1.0
25	0	0.7478299737	0	-6.860985279	-2.605248213	-89.53424835	1.0
[Spine1]
19	0	2.049309969	0	8.64647007	-0.7036477923	-2.236662626	1.0
20	0	2.049309969	0	8.739649773	-0.6863363981	-2.422973633	1.0
21	0	2.049309969	0	8.679880142	-0.673007369	-2.564820051	1.0
22	0	2.049309969	0	8.543353081	-0.6138424277	-2.771287441	1.0
23	0	2.049309969	0	8.536286354	-0.6345496774	-2.793841362	1.0
24	0	2.049309969	0	8.696421623	-0.6367914677	-2.760341167	1.0
25	0	2.049309969	0	8.929695129	-0.6510310769	-2.91372323	1.0
[Neck]
19	0	2.231709957	0	3.230343342	9.619445801	-85.39082336	1.0
20	0	2.231709957	0	3.423052788	9.719818115	-85.81240082	1.0
21	0	2.231709957	0	3.56849885	9.952414513	-86.04598999	1.0
22	0	2.231709957	0	3.563053608	10.09343529	-86.7953186	1.0
23	0	2.231709957	0	3.765851974	10.0773201	-86.47013855	1.0
24	0	2.231709957	0	3.201235771	10.01602745	-86.75811005	1.0
25	0	2.231709957	0	2.953218699	9.697301865	-87.16608429	1.0
[Head]
19	0	1.413589954	0.1823999882	-11.25528526	2.944695234	-98.07685852	1.0
20	0	1.413589954	0.1823999882	-11.36509418	2.99134779	-97.6361618	1.0
21	0	1.413589954	0.1823999882	-11.50114441	3.199706793	-97.72097015	1.0
22	0	1.413589954	0.1823999882	-11.64039803	3.234026909	-96.72815704	1.0
23	0	1.413589954	0.1823999882	-11.71785736	3.276478767	-97.85993195	1.0
24	0	1.413589954	0.1823999882	-11.28680706	3.213396072	-98.056633	1.0
25	0	1.413589954	0.1823999882	-11.35238838	2.832113981	-97.61971283	1.0
[LeftShoulder]
19	0.3649300039	1.825889945	-0.04271000251	-9.757893562	-6.865110397	3.666718721	1.0
20	0.3649300039	1.825889945	-0.04271000251	-10.52945137	-6.635995388	4.062776089	1.0
21	0.3649300039	1.825889945	-0.04271000251	-10.5913105	-6.828768253	3.957503319	1.0
22	0.3649300039	1.825889945	-0.04271000251	-11.06670761	-7.215579033	3.421741486	1.0
23	0.3649300039	1.825889945	-0.04271000251	-10.65505219	-6.848167419	3.576244354	1.0
24	0.3649300039	1.825889945	-0.04271000251	-10.90737343	-6.903191566	3.158763885	1.0
25	0.3649300039	1.825889945	-0.04271000251	-11.21095276	-6.761316776	3.332087278	1.0
[LeftArm]
19	1.24003005	0	0	35.58934402	8.862350464	-82.21814728	1.0
20	1.24003005	0	0	35.12553024	9.233091354	-81.86914063	1.0
21	1.24003005	0	0	36.16793823	9.140034676	-81.43392944	1.0
22	1.24003005	0	0	36.5568161	9.595350266	-80.65737915	1.0
23	1.24003005	0	0	36.64068222	8.793902397	-80.92441559	1.0
24	1.24003005	0	0	36.84718704	8.654541016	-80.53451538	1.0
25	1.24003005	0	0	37.89548492	8.702584267	-80.74417877	1.0
[LeftForeArm]
19	2.847419977	0	0	-11.98383045	-11.794631	-7.291110039	1.0
20	2.847419977	0	0	-10.811203	-12.3210783	-8.099979401	1.0
21	2.847419977	0	0	-10.87888432	-13.01455593	-7.914149284	1.0
22	2.847419977	0	0	-10.76026344	-13.70535088	-7.684830666	1.0
23	2.847419977	0	0	-10.77434826	-14.19293308	-7.492720127	1.0
24	2.847419977	0	0	-10.47555828	-14.74858856	-7.329016209	1.0
25	2.847419977	0	0	-10.81169987	-15.89745808	-6.102613926	1.0
[LeftHand]
19	2.258270025	0	0	-11.85774422	-7.640879631	-13.11494637	1.0
20	2.258270025	0	0	-10.81328964	-7.55420208	-13.16590118	1.0
21	2.258270025	0	0	-10.9190731	-7.586898804	-12.96329212	1.0
22	2.258270025	0	0	-10.84346771	-7.679617882	-12.48202515	1.0
23	2.258270025	0	0	-10.91752815	-7.828528404	-11.50329399	1.0
24	2.258270025	0	0	-10.66014671	-8.288585663	-10.52342415	1.0
25	2.258270025	0	0	-10.92704105	-8.730139732	-9.631700516	1.0
[RightShoulder]
19	-0.3646599948	1.825889945	-0.04271000251	-7.774824142	5.209611416	177.7253418	1.0
20	-0.3646599948	1.825889945	-0.04271000251	-8.023927689	5.327235222	177.5184631	1.0
21	-0.3646599948	1.825889945	-0.04271000251	-8.061429024	5.540443897	177.3282928	1.0
22	-0.3646599948	1.825889945	-0.04271000251	-8.059449196	5.544224739	177.2770081	1.0
23	-0.3646599948	1.825889945	-0.04271000251	-7.909034729	5.714297771	177.4865265	1.0
24	-0.3646599948	1.825889945	-0.04271000251	-8.250993729	5.92971468	177.4490356	1.0
25	-0.3646599948	1.825889945	-0.04271000251	-8.276687622	5.822250366	177.4144135	1.0
[RightArm]
19	-1.24003005	0	0	42.42358398	-3.979500055	-96.83561707	1.0
20	-1.24003005	0	0	42.73977661	-4.005920887	-97.10562897	1.0
21	-1.24003005	0	0	42.65292358	-3.985920429	-97.10926056	1.0
22	-1.24003005	0	0	42.56275177	-3.857813835	-96.91947937	1.0
23	-1.24003005	0	0	43.26117325	-3.664941311	-96.96739197	1.0
24	-1.24003005	0	0	44.22012711	-3.585715294	-96.87309265	1.0
25	-1.24003005	0	0	44.40729141	-3.470893621	-96.50107574	1.0
[RightForeArm]
19	-2.847419977	0	0	2.051345587	16.46484566	182.7809143	1.0
20	-2.847419977	0	0	2.638594389	17.20821953	183.2764893	1.0
21	-2.847419977	0	0	3.052511692	17.98237419	183.3639832	1.0
22	-2.847419977	0	0	3.297413349	18.52404404	183.4868164	1.0
23	-2.847419977	0	0	3.594620705	18.92063141	183.5819397	1.0
24	-2.847419977	0	0	3.808735371	19.07766342	183.6520691	1.0
25	-2.847419977	0	0	3.682615757	19.06867027	183.5071716	1.0
[RightHand]
19	-2.258270025	0	0	2.385055304	10.01119328	188.390564	1.0
20	-2.258270025	0	0	2.855583429	10.13832855	188.0217285	1.0
21	-2.258270025	0	0	3.244814157	10.22971439	188.0784302	1.0
22	-2.258270025	0	0	3.44799757	10.29350281	187.9676971	1.0
23	-2.258270025	0	0	3.678567648	10.230896	187.5912933	1.0
24	-2.258270025	0	0	3.819711685	10.13330173	187.0331116	1.0
25	-2.258270025	0	0	3.698532581	10.07936192	186.8487396	1.0
[LeftUpLeg]
19	0.9119900465	0	0	4.308020115	-1.870213747	88.98771667	1.0
20	0.9119900465	0	0	3.583698511	-1.448858261	88.97709656	1.0
21	0.9119900465	0	0	2.122488737	-0.7735263705	88.89320374	1.0
22	0.9119900465	0	0	-0.1956014037	-0.7522029281	88.90970612	1.0
23	0.9119900465	0	0	-3.279823303	-1.823190212	89.61100769	1.0
24	0.9119900465	0	0	-7.523622513	-3.562341452	90.95227051	1.0
25	0.9119900465	0	0	-12.98230171	-5.10494566	92.23317719	1.0
[LeftLeg]
19	0	-4.371409893	0	7.792827606	-1.768584371	87.08895111	1.0
20	0	-4.371409893	0	10.45005608	-2.058850527	86.85871124	1.0
21	0	-4.371409893	0	14.81450367	-2.052721739	87.21502686	1.0
22	0	-4.371409893	0	20.88612556	-0.589502573	87.64554596	1.0
23	0	-4.371409893	0	28.73943901	0.4936571121	86.84408569	1.0
24	0	-4.371409893	0	38.35417938	1.550871611	84.03322601	1.0
25	0	-4.371409893	0	48.68694305	3.102319717	80.39968872	1.0
[LeftFoot]
19	0	-3.918009996	0	-98.42037964	114.9651947	-39.81529236	1.0
20	0	-3.918009996	0	-97.99373627	114.5046082	-38.41499329	1.0
21	0	-3.918009996	0	-99.02905273	112.910881	-38.40029907	1.0
22	0	-3.918009996	0	-101.2382813	110.6518784	-39.79278564	1.0
23	0	-3.918009996	0	-98.92032623	109.1274796	-36.93124008	1.0
24	0	-3.918009996	0	-88.72006226	108.7834854	-27.89218903	1.0
25	0	-3.918009996	0	-74.84676361	110.9928207	-18.73989868	1.0
[LeftToeBase]
19	0	-0.5927900076	1.367989898	0	0	0	1.0
20	0	-0.5927900076	1.367989898	0	0	0	1.0
21	0	-0.5927900076	1.367989898	0	0	0	1.0
22	0	-0.5927900076	1.367989898	0	0	0	1.0
23	0	-0.5927900076	1.367989898	0	0	0	1.0
24	0	-0.5927900076	1.367989898	0	0	0	1.0
25	0	-0.5927900076	1.367989898	0	0	0	1.0
[RightUpLeg]
19	-0.9119900465	0	0	11.16946793	-15.99871063	88.07997894	1.0
20	-0.9119900465	0	0	11.23734474	-15.78687096	88.03629303	1.0
21	-0.9119900465	0	0	11.5203352	-16.191782	88.00250244	1.0
22	-0.9119900465	0	0	11.8445158	-15.90788269	88.08197784	1.0
23	-0.9119900465	0	0	12.3713932	-16.09693146	88.26249695	1.0
24	-0.9119900465	0	0	12.77358723	-16.46996117	88.60575867	1.0
25	-0.9119900465	0	0	13.14999294	-17.44725609	88.59871674	1.0
[RightLeg]
19	0	-4.371409893	0	1.05467236	-7.898940563	91.91844177	1.0
20	0	-4.371409893	0	1.809503555	-7.504552364	91.56896973	1.0
21	0	-4.371409893	0	2.414434433	-7.467641354	91.16799164	1.0
22	0	-4.371409893	0	2.897207975	-7.278412342	91.05739594	1.0
23	0	-4.371409893	0	3.488314629	-7.075352669	91.06468201	1.0
24	0	-4.371409893	0	4.132524014	-6.848838806	90.94246674	1.0
25	0	-4.371409893	0	4.694700718	-6.928040504	90.65885162	1.0
[RightFoot]
19	0	-3.918009996	0	25.5102787	61.70254517	78.10469055	1.0
20	0	-3.918009996	0	25.03528786	61.25164032	78.24762726	1.0
21	0	-3.918009996	0	24.86959457	62.12468338	78.52381897	1.0
22	0	-3.918009996	0	23.60457993	61.94528198	78.03205872	1.0
23	0	-3.918009996	0	22.64260292	61.90182877	78.10852814	1.0
24	0	-3.918009996	0	21.34973526	61.59750366	77.78955078	1.0
25	0	-3.918009996	0	21.93538094	61.15330505	79.06327057	1.0
[RightToeBase]
19	0	-0.5927900076	1.367989898	0	0	0	1.0
20	0	-0.5927900076	1.367989898	0	0	0	1.0
21	0	-0.5927900076	1.367989898	0	0	0	1.0
22	0	-0.5927900076	1.367989898	0	0	0	1.0
23	0	-0.5927900076	1.367989898	0	0	0	1.0
24	0	-0.5927900076	1.367989898	0	0	0	1.0
25	0	-0.5927900076	1.367989898	0	0	0	1.0
[EndOfFile]
